<?xml version="1.0" encoding="UTF-8"?>
<svg version="1.1" xmlns="http://www.w3.org/2000/svg" width="1024" height="1024">
<path d="M0 0 C337.92 0 675.84 0 1024 0 C1024 337.92 1024 675.84 1024 1024 C686.08 1024 348.16 1024 0 1024 C0 686.08 0 348.16 0 0 Z " fill="#FEFEFE" transform="translate(0,0)"/>
<path d="M0 0 C29.19378569 11.67751428 55.88150184 31.95115786 79 53 C79.72050537 53.65500488 79.72050537 53.65500488 80.45556641 54.32324219 C89.7808328 62.81704532 98.78674854 71.40996073 107 81 C107.89380698 82.01886499 108.78840063 83.03704018 109.68359375 84.0546875 C131.22424661 108.67155685 149.18630189 136.3409842 163 166 C163.57548584 167.23145752 163.57548584 167.23145752 164.16259766 168.48779297 C185.99650568 215.71238118 196.4431945 266.13626474 196.4375 318 C196.43889984 319.22589844 196.44029968 320.45179688 196.44174194 321.71484375 C196.42224924 342.56492012 194.89530604 362.53336761 191 383 C190.79181641 384.15773926 190.58363281 385.31547852 190.36914062 386.50830078 C188.05069613 399.33665185 184.82677086 411.66797961 180.65380859 424.01171875 C179.76555745 426.71295747 179.01728259 429.44977807 178.25 432.1875 C167.95424908 465.5642991 150.43738763 497.79957365 130 526 C129.52208008 526.66193359 129.04416016 527.32386719 128.55175781 528.00585938 C121.48579101 537.74077738 113.99247743 547.01252962 106 556 C105.33000977 556.75676025 105.33000977 556.75676025 104.64648438 557.52880859 C94.48507823 568.95850876 83.77378481 580.21654548 72 590 C71.43796875 590.50144531 70.8759375 591.00289062 70.296875 591.51953125 C66.34659091 595 66.34659091 595 63 595 C61.5625 593.19140625 61.5625 593.19140625 60 590.5625 C57.08191918 585.72391482 54.0682767 580.95822269 50.9921875 576.21875 C50.51466034 575.48197525 50.03713318 574.7452005 49.5451355 573.98609924 C44.62530405 566.40546087 39.66057836 558.85450961 34.68762207 551.30865479 C31.95436243 547.16115053 29.22345328 543.01209868 26.4921875 538.86328125 C25.66702637 537.61004059 25.66702637 537.61004059 24.82519531 536.33148193 C17.4972237 525.20071248 10.1888498 514.05709055 2.88000488 502.91375732 C-0.27329797 498.10654728 -3.42926123 493.30108912 -6.5859375 488.49609375 C-8.43243928 485.68499276 -10.27877517 482.87378288 -12.125 480.0625 C-12.57360382 479.37944794 -13.02220764 478.69639587 -13.48440552 477.99264526 C-18.65743197 470.11459565 -23.80742512 462.22291248 -28.90405273 454.29516602 C-32.70762526 448.40329944 -36.61312246 442.58010722 -40.51428223 436.75265503 C-47.42484088 426.42905983 -54.21738421 416.04266255 -60.88720703 405.56103516 C-66.04986689 397.45737794 -71.28927913 389.40691183 -76.5625 381.375 C-76.96604706 380.76029846 -77.36959412 380.14559692 -77.78536987 379.51226807 C-79.38964622 377.06886207 -80.99408993 374.62556619 -82.59892273 372.18252563 C-86.24545447 366.6300419 -89.87456525 361.06627934 -93.5 355.5 C-99.92383436 345.64095078 -106.37028198 335.79684385 -112.82128906 325.95556641 C-117.97067893 318.09960448 -123.11267948 310.23886241 -128.25 302.375 C-135.06409135 291.9456501 -141.90478144 281.53393795 -148.75 271.125 C-154.72854426 262.03389976 -160.7065209 252.94287888 -166.625 243.8125 C-172.28272915 235.08461089 -177.98235494 226.38443465 -183.6875 217.6875 C-184.12612366 217.01844635 -184.56474731 216.3493927 -185.0166626 215.6600647 C-186.30605331 213.69353656 -187.59627035 211.72755295 -188.88671875 209.76171875 C-189.2531398 209.20273895 -189.61956085 208.64375916 -189.99708557 208.06784058 C-194.62707001 201.01984046 -199.32204532 194.01693203 -204 187 C-204.33 269.83 -204.66 352.66 -205 438 C-224.47 438 -243.94 438 -264 438 C-264 315.9 -264 193.8 -264 68 C-245.52 68 -227.04 68 -208 68 C-194.92683921 82.15694614 -194.92683921 82.15694614 -190.61572266 93.15234375 C-188.28885629 98.9750099 -184.68979866 103.93974241 -181.125 109.0625 C-179.90754621 110.91630982 -178.6964579 112.77431778 -177.4921875 114.63671875 C-176.91178711 115.52794434 -176.33138672 116.41916992 -175.73339844 117.33740234 C-168.52699372 128.40684598 -161.33049991 139.48257048 -154.15869141 150.57446289 C-149.0052795 158.54245911 -143.83085804 166.49678404 -138.65722656 174.45166016 C-136.47814244 177.80246747 -134.29981767 181.15376802 -132.12158203 184.50512695 C-131.03668989 186.17427974 -129.95172846 187.8433875 -128.86669922 189.51245117 C-126.20692482 193.60395277 -123.54789252 197.69593227 -120.890625 201.7890625 C-114.41168438 211.76663105 -107.91115301 221.72988158 -101.39758301 231.68487549 C-96.23292757 239.57861764 -91.08168574 247.48083786 -85.9465332 255.39379883 C-82.96768718 259.98126763 -79.97900533 264.56209186 -76.98046875 269.13671875 C-69.09341006 281.17057217 -61.26828221 293.23940619 -53.5324707 305.37109375 C-49.66516543 311.42686663 -45.74162535 317.43593742 -41.72485352 323.39331055 C-38.05134259 328.86640497 -34.52691328 334.4316595 -31 340 C-27.03994746 346.25107077 -23.05617659 352.47712177 -18.9375 358.625 C-12.86830962 367.69037297 -6.94552216 376.85304284 -1 386 C-0.67 258.62 -0.34 131.24 0 0 Z " fill="#798988" transform="translate(674,184)"/>
<path d="M0 0 C0.00032605 1.32712155 0.00032605 1.32712155 0.00065869 2.68105364 C0.01418199 55.14797318 0.05369966 107.61481848 0.12685562 160.08169052 C0.13562211 166.3850265 0.14417196 172.68836276 0.15258789 178.99169922 C0.15426695 180.24655107 0.15594602 181.50140292 0.15767596 182.79428059 C0.18432728 203.09806858 0.1934397 223.40182834 0.19604143 243.70563203 C0.19910362 264.54769743 0.22108114 285.38968135 0.26052457 306.23170996 C0.2842592 319.08669364 0.29333636 331.94151457 0.28351311 344.79651713 C0.27818697 353.61822709 0.29127627 362.43979153 0.3186629 371.26146007 C0.33391264 376.34696686 0.34121921 381.43214788 0.32659721 386.51766396 C0.31336337 391.18303362 0.32350094 395.84777446 0.35143773 400.51307386 C0.35750512 402.19166956 0.35534098 403.87032199 0.34362926 405.54888779 C0.24132147 421.47081663 3.3268782 434.95936617 13 448 C13.7425 449.051875 14.485 450.10375 15.25 451.1875 C27.21704579 463.4265241 41.98076582 468.98309213 58.88138521 469.19599903 C63.5712558 469.21131942 68.2602399 469.18055608 72.94995117 469.14428711 C75.06664135 469.13556673 77.18333606 469.12789428 79.30003357 469.1211853 C83.84033319 469.105632 88.38056721 469.08479691 92.92082787 469.06043816 C100.10276596 469.0240634 107.28460863 469.01261304 114.46662903 469.00697327 C115.68098403 469.00590873 116.89533903 469.0048442 118.14649266 469.0037474 C120.62844526 469.00160834 123.11039791 468.99952133 125.5923506 468.99748528 C142.30032405 468.98264296 159.00786491 468.95076012 175.71557617 468.8527832 C187.00505088 468.78676936 198.29388377 468.75963121 209.58354741 468.77733427 C215.5523164 468.78511401 221.51955363 468.77285822 227.48805809 468.71290398 C233.09729909 468.65682493 238.70425867 468.65187258 244.31365395 468.68600082 C246.36959736 468.6893969 248.42567213 468.67400281 250.48130798 468.63828087 C266.01469048 468.38371345 266.01469048 468.38371345 270.95752907 472.40779305 C273.02207086 475.19783808 274.54473919 477.85787383 276 481 C276.77218643 482.23163768 277.56017809 483.45366586 278.37109375 484.66015625 C279.05300781 485.78292969 279.73492188 486.90570312 280.4375 488.0625 C285.80787877 496.81443241 291.45639787 505.38187254 297.11108398 513.95141602 C297.81434814 515.02061279 298.5176123 516.08980957 299.2421875 517.19140625 C300.18360596 518.61755249 300.18360596 518.61755249 301.14404297 520.07250977 C303.20755063 523.32737959 305.09674983 526.64908043 307 530 C273.71664296 530.04582741 240.43329381 530.08104455 207.1499122 530.10213066 C203.21607097 530.10463192 199.28222981 530.10722058 195.34838867 530.10986328 C194.56526702 530.1103879 193.78214537 530.11091252 192.97529276 530.11145304 C180.31290684 530.12014387 167.65053916 530.13590653 154.98816404 530.15430559 C141.98504972 530.17304149 128.98194491 530.18412451 115.97881764 530.18817699 C107.96212697 530.19091441 99.9454879 530.19954477 91.92881312 530.21583293 C85.77052556 530.22770411 79.61227693 530.22890205 73.45397949 530.22621536 C70.93578462 530.22676385 68.41758771 530.23071884 65.89940453 530.23841095 C50.0892064 530.28432077 35.59305552 530.01451052 20.5 524.8125 C19.59854248 524.50570312 18.69708496 524.19890625 17.76831055 523.8828125 C6.47347986 519.91651882 -3.46143871 514.23719412 -13 507 C-13.89460937 506.32195312 -14.78921875 505.64390625 -15.7109375 504.9453125 C-33.00202971 491.33523712 -45.22838724 473.4768898 -53 453 C-53.39703125 451.97648437 -53.7940625 450.95296875 -54.203125 449.8984375 C-60.44576403 432.61471303 -60.42818659 415.49490834 -60.34819686 397.35733819 C-60.33510438 393.62616098 -60.33963518 389.89499685 -60.34190369 386.1638031 C-60.34346817 379.71701795 -60.33414597 373.27032467 -60.31719017 366.82356262 C-60.29269181 357.5029211 -60.28498388 348.18232349 -60.2812262 338.86165327 C-60.27467861 323.73538045 -60.25476364 308.60915649 -60.22631836 293.48291016 C-60.19873379 278.79899335 -60.1775218 264.11508987 -60.16479492 249.43115234 C-60.16361267 248.07090723 -60.16361267 248.07090723 -60.16240653 246.68318242 C-60.15849109 242.13337092 -60.15470005 237.58355933 -60.15097082 233.03374767 C-60.11992767 195.35579731 -60.0671383 157.67790248 -60 120 C-60.66 120 -61.32 120 -62 120 C-62.23976563 120.55300781 -62.47953125 121.10601562 -62.7265625 121.67578125 C-64.29103152 124.53117717 -66.23457792 126.7319025 -68.375 129.1875 C-83.21538212 146.66217266 -95.35508144 166.53938218 -105.15917969 187.22851562 C-105.93933443 188.87218658 -106.73842363 190.506834 -107.5390625 192.140625 C-118.23348366 214.44449801 -125.35979837 238.06691048 -130.3125 262.25 C-130.55500488 263.41974365 -130.79750977 264.5894873 -131.04736328 265.79467773 C-134.41842791 283.03475491 -135.41242153 300.33796335 -135.375 317.875 C-135.37478851 318.80244019 -135.37457703 319.72988037 -135.37435913 320.6854248 C-135.33656054 337.43073786 -133.98978415 353.49922686 -131 370 C-130.83935059 370.9600293 -130.67870117 371.92005859 -130.51318359 372.90917969 C-121.33398192 426.99307407 -94.13076199 476.513328 -58.36035156 517.43994141 C-57.14644342 518.83205788 -55.94354117 520.23375382 -54.7421875 521.63671875 C-51.09255409 525.85168753 -47.31326035 529.59955255 -43.0546875 533.1953125 C-40.81871624 535.15922642 -38.76190269 537.24153958 -36.6875 539.375 C-31.77526691 544.33761497 -26.47989205 548.68184506 -21 553 C-20.01257813 553.79277344 -19.02515625 554.58554687 -18.0078125 555.40234375 C8.72584765 576.5026017 38.97063184 591.78429419 71 603 C72.37986084 603.48581543 72.37986084 603.48581543 73.78759766 603.98144531 C86.05596277 608.21803497 98.44032816 611.05818876 111.1875 613.375 C111.88696747 613.5026474 112.58643494 613.6302948 113.30709839 613.7618103 C128.26474049 616.45746602 142.85614984 617.18655513 158.03271484 617.18530273 C160.96597128 617.1874748 163.8988417 617.20564585 166.83203125 617.22460938 C184.11426815 617.27796167 201.00446081 616.04427446 217.9375 612.4375 C219.15131348 612.1806543 220.36512695 611.92380859 221.61572266 611.65917969 C243.64000688 606.81276018 264.63178661 599.64533981 285 590 C286.10190674 589.48421387 286.10190674 589.48421387 287.22607422 588.95800781 C295.35437748 585.12731859 303.20345841 580.8389052 311 576.375 C311.77762695 575.93164307 312.55525391 575.48828613 313.35644531 575.03149414 C317.97120856 572.34517748 322.1617158 569.43856561 326.2734375 566.02587891 C326.84320312 565.68733887 327.41296875 565.34879883 328 565 C332.03146334 566.34382111 332.73267653 568.2241491 335.02734375 571.7734375 C335.41291946 572.36493591 335.79849518 572.95643433 336.195755 573.56585693 C337.4514148 575.49693418 338.69485877 577.43552444 339.9375 579.375 C340.79280797 580.69937018 341.64860393 582.02342533 342.50488281 583.34716797 C344.21181254 585.98936839 345.91328325 588.63497199 347.61083984 591.28320312 C349.70694497 594.55052882 351.82821381 597.80074692 353.95703125 601.046875 C355.0554732 602.73907358 356.15319474 604.43174014 357.25 606.125 C358.00978149 607.27621338 358.00978149 607.27621338 358.78491211 608.45068359 C359.93678899 610.25161914 360.98111235 612.1206232 362 614 C360.85258463 617.4422461 360.27165194 617.75324623 357.30859375 619.6015625 C356.53684814 620.0872168 355.76510254 620.57287109 354.9699707 621.07324219 C354.13425537 621.58532227 353.29854004 622.09740234 352.4375 622.625 C351.57922607 623.15770508 350.72095215 623.69041016 349.83666992 624.23925781 C320.55355928 642.28711637 289.80346835 655.74740485 257 666 C256.11973145 666.27714844 255.23946289 666.55429687 254.33251953 666.83984375 C212.89455401 679.69960239 165.98932927 682.70383799 123 677 C121.98566895 676.86577637 120.97133789 676.73155273 119.92626953 676.59326172 C54.92752759 667.73381055 -5.71027184 643.24548973 -57 602 C-57.94875 601.24332031 -58.8975 600.48664062 -59.875 599.70703125 C-66.11031655 594.6754772 -72.08049601 589.39664559 -78 584 C-79.728887 582.45801971 -81.45805194 580.91635099 -83.1875 579.375 C-89.14715696 574.00199677 -94.68626652 568.44528272 -99.91796875 562.36328125 C-101.54200305 560.5198652 -103.18662988 558.71270186 -104.86328125 556.91796875 C-105.37930908 556.36512207 -105.89533691 555.81227539 -106.42700195 555.24267578 C-107.43937445 554.16132431 -108.45461622 553.08264825 -109.47338867 552.00732422 C-113.62441679 547.56765533 -117.32713712 542.83900447 -121 538 C-121.55220215 537.27659424 -122.1044043 536.55318848 -122.67333984 535.80786133 C-146.66093336 504.20397628 -165.481131 469.69719664 -178 432 C-178.44448486 430.67282959 -178.44448486 430.67282959 -178.89794922 429.31884766 C-183.7945789 414.60076845 -187.5330669 399.76859947 -190.5625 384.5625 C-190.76045166 383.5943335 -190.95840332 382.62616699 -191.16235352 381.62866211 C-195.18513948 360.80414523 -196.55221305 340.05431111 -196.4375 318.875 C-196.43445862 317.67521515 -196.43141724 316.4754303 -196.42828369 315.23928833 C-196.35822245 296.49261191 -195.41498808 278.4644873 -192 260 C-191.79101074 258.783125 -191.58202148 257.56625 -191.36669922 256.3125 C-188.04690137 237.05518575 -183.1291221 218.52672663 -177 200 C-176.69400879 199.06994141 -176.38801758 198.13988281 -176.07275391 197.18164062 C-165.28099842 165.11679692 -148.25708382 133.14947314 -127.30517578 106.66992188 C-125.32723811 104.13922721 -123.45418726 101.53299105 -121.5625 98.9375 C-109.10301458 82.36213429 -94.68562901 66.55027447 -79 53 C-77.33145389 51.48122889 -75.66481801 49.96035679 -74 48.4375 C-58.95856212 34.95127252 -42.31496283 23.36352056 -25 13 C-24.25733887 12.55462891 -23.51467773 12.10925781 -22.74951172 11.65039062 C-3.26509609 0 -3.26509609 0 0 0 Z " fill="#4C89C6" transform="translate(350,184)"/>
<path d="M0 0 C40.88082833 40.55869842 63.5419366 98.15607922 73 154 C73.16661133 154.92989746 73.33322266 155.85979492 73.50488281 156.81787109 C80.37726841 196.06730314 76.88111495 238.78489452 66 277 C65.81501953 277.66660645 65.63003906 278.33321289 65.43945312 279.02001953 C55.8310647 313.20502425 40.02239582 343.87002135 20 373 C19.53932129 373.68545898 19.07864258 374.37091797 18.60400391 375.07714844 C17.45396418 376.7544475 16.2330837 378.38277147 15 380 C14.34 380 13.68 380 13 380 C11.26581386 377.63520071 9.64900868 375.27353439 8.0625 372.8125 C7.39831055 371.80219727 7.39831055 371.80219727 6.72070312 370.77148438 C5.46658077 368.8557237 4.22175639 366.93657505 3 365 C2.4873107 364.26354132 1.97462139 363.52708264 1.44639605 362.76830703 C-0.26015303 359.50208419 -0.37297404 357.43345915 -0.36914349 353.76250744 C-0.3781032 351.86654096 -0.3781032 351.86654096 -0.38724393 349.93227214 C-0.3786853 348.5320915 -0.36984852 347.13191255 -0.36076355 345.73173523 C-0.36207177 344.24249015 -0.36469849 342.75324573 -0.36853105 341.26400501 C-0.37524482 337.17064684 -0.36323115 333.07752379 -0.34819686 328.98419559 C-0.3352536 324.57047269 -0.33962475 320.15676327 -0.34190369 315.74302673 C-0.3434775 308.09559164 -0.33405697 300.44823328 -0.31719017 292.80081749 C-0.29281943 281.74392073 -0.28499687 270.68706111 -0.2812262 259.6301404 C-0.27465869 241.69147556 -0.2546894 223.75285162 -0.22631836 205.81420898 C-0.19878554 188.38745326 -0.17754815 170.96070863 -0.16479492 153.53393555 C-0.16400675 152.45993076 -0.16321858 151.38592597 -0.16240653 150.27937558 C-0.15849144 144.89146317 -0.15470031 139.50355068 -0.15097082 134.11563814 C-0.11986559 89.41039709 -0.06702163 44.70520066 0 0 Z " fill="#FDFEFD" transform="translate(734,303)"/>
<path d="M0 0 C0.00021737 0.8847477 0.00043474 1.7694954 0.00065869 2.68105364 C0.01418199 55.14797318 0.05369966 107.61481848 0.12685562 160.08169052 C0.13562211 166.3850265 0.14417196 172.68836276 0.15258789 178.99169922 C0.15426695 180.24655107 0.15594602 181.50140292 0.15767596 182.79428059 C0.18432728 203.09806858 0.1934397 223.40182834 0.19604143 243.70563203 C0.19910362 264.54769743 0.22108114 285.38968135 0.26052457 306.23170996 C0.2842592 319.08669364 0.29333636 331.94151457 0.28351311 344.79651713 C0.27818697 353.61822709 0.29127627 362.43979153 0.3186629 371.26146007 C0.33391264 376.34696686 0.34121921 381.43214788 0.32659721 386.51766396 C0.31336337 391.18303362 0.32350094 395.84777446 0.35143773 400.51307386 C0.35750512 402.19166956 0.35534098 403.87032199 0.34362926 405.54888779 C0.26800337 417.31837341 1.50765522 428.71244776 7.22406548 439.25817633 C8 441 8 441 7 444 C4.03 439.05 4.03 439.05 1 434 C0.34 434.99 -0.32 435.98 -1 437 C-2.31374586 417.56477421 -2.13718552 398.11439367 -2.11606562 378.64636719 C-2.11170356 373.59351938 -2.11321159 368.54067265 -2.1139679 363.48782349 C-2.11448952 354.7564634 -2.11138073 346.02511086 -2.10573006 337.29375267 C-2.09756573 324.67003408 -2.09499481 312.0463191 -2.09374207 299.42259816 C-2.09155926 278.9361083 -2.08492017 258.44962245 -2.07543945 237.96313477 C-2.06624532 218.07511413 -2.0591743 198.1870946 -2.05493164 178.29907227 C-2.05466892 177.07096029 -2.05440619 175.8428483 -2.05413551 174.57752081 C-2.05283037 168.41578271 -2.05156669 162.25404461 -2.05032361 156.09230649 C-2.03997503 105.0615349 -2.02237781 54.03076764 -2 3 C-3.98 3.33 -5.96 3.66 -8 4 C-2.7826087 0 -2.7826087 0 0 0 Z " fill="#5F8FBB" transform="translate(350,184)"/>
<path d="M0 0 C27.33779035 -0.35057492 54.67524336 -0.61499762 82.01482964 -0.77718258 C94.7095445 -0.85449412 107.40286191 -0.95987007 120.09667969 -1.1315918 C131.16218315 -1.28121421 142.2266746 -1.37789851 153.29316151 -1.41132742 C159.15216888 -1.43086683 165.00828148 -1.47669276 170.86635971 -1.58595085 C176.38471978 -1.68803577 181.89900397 -1.71912749 187.41821861 -1.69661522 C189.43961594 -1.70073084 191.46115411 -1.73043024 193.48173332 -1.78808212 C208.34565567 -2.19126186 208.34565567 -2.19126186 212.78107309 1.47034335 C215.90376418 5.02100226 218.09903551 8.94750244 220.11923814 13.20194805 C221.33032898 15.67435785 222.83211419 17.91311453 224.3828125 20.18359375 C225.29798787 21.60084449 226.21210663 23.01877828 227.125 24.4375 C227.60453125 25.18064453 228.0840625 25.92378906 228.578125 26.68945312 C229.71975856 28.45898514 230.86004531 30.22938597 232 32 C231.01 32.99 231.01 32.99 230 34 C229.20335937 32.67935547 229.20335937 32.67935547 228.390625 31.33203125 C227.67726585 30.15874318 226.9637139 28.98557231 226.25 27.8125 C225.72792969 26.9452832 225.72792969 26.9452832 225.1953125 26.06054688 C223.01473491 22.48682249 220.61224595 19.26257496 218 16 C216.8046875 13.8671875 216.8046875 13.8671875 215.875 11.875 C214.7031573 9.38604485 213.54242862 7.31364293 212 5 C208.41642759 4.74984127 208.41642759 4.74984127 205 5 C205 4.34 205 3.68 205 3 C205.66 2.67 206.32 2.34 207 2 C138.69 1.67 70.38 1.34 0 1 C0 0.67 0 0.34 0 0 Z " fill="#4A82B1" transform="translate(408,655)"/>
<path d="M0 0 C4.875 4.625 4.875 4.625 6 8 C-78.15 8 -162.3 8 -249 8 C-249 7.67 -249 7.34 -249 7 C-166.5 6.67 -84 6.34 1 6 C0.67 4.02 0.34 2.04 0 0 Z " fill="#507EA9" transform="translate(651,706)"/>
<path d="M0 0 C0.99 0.33 1.98 0.66 3 1 C0.55119263 3.51877329 -1.86021825 5.89017149 -4.625 8.0625 C-7.05671298 9.88763608 -7.05671298 9.88763608 -8.6875 12.25 C-9.120625 12.8275 -9.55375 13.405 -10 14 C-10.66 14 -11.32 14 -12 14 C-12.2475 14.639375 -12.495 15.27875 -12.75 15.9375 C-14 18 -14 18 -16.125 18.75 C-17.053125 18.87375 -17.053125 18.87375 -18 19 C-18 19.99 -18 20.98 -18 22 C-19.64453125 23.6484375 -19.64453125 23.6484375 -21.8125 25.375 C-24.97027848 28.01483598 -27.13734854 30.27469709 -29 34 C-29.66 34.99 -30.32 35.98 -31 37 C-31.99 37 -32.98 37 -34 37 C-34.33 38.32 -34.66 39.64 -35 41 C-35.66 41 -36.32 41 -37 41 C-37.268125 41.59039062 -37.53625 42.18078125 -37.8125 42.7890625 C-39.01072058 45.01996003 -40.27008995 46.53697058 -42 48.375 C-45.41868076 52.18315072 -48.413274 56.21007281 -51.375 60.375 C-51.81585938 60.9942334 -52.25671875 61.6134668 -52.7109375 62.25146484 C-55.02855883 65.51953798 -55.02855883 65.51953798 -57 69 C-57.66 69 -58.32 69 -59 69 C-57.68722572 65.35380662 -56.10579995 62.52472114 -53.76171875 59.4453125 C-53.11323975 58.59090576 -52.46476074 57.73649902 -51.79663086 56.85620117 C-51.10061768 55.95490479 -50.40460449 55.0536084 -49.6875 54.125 C-48.96763916 53.18825439 -48.24777832 52.25150879 -47.50610352 51.28637695 C-41.28921317 43.25848839 -34.83112124 35.51027329 -28 28 C-27.08105957 26.98848877 -27.08105957 26.98848877 -26.14355469 25.95654297 C-19.36850887 18.53617319 -12.55688923 11.28138881 -4.953125 4.69921875 C-3.22371277 3.19463011 -1.59723741 1.64272835 0 0 Z " fill="#5686B0" transform="translate(274,234)"/>
<path d="M0 0 C2.63040678 1.31520339 2.93727286 2.26662977 4 5 C4.30853213 7.30542061 4.54912092 9.62021628 4.75 11.9375 C6.28675651 26.34039811 11.13109299 40.24325798 16.17089844 53.75952148 C17.24391894 56.66063765 18 58.87734909 18 62 C18.66 62 19.32 62 20 62 C20.67260351 63.76858691 21.33788395 65.53996016 22 67.3125 C22.556875 68.79169922 22.556875 68.79169922 23.125 70.30078125 C24 73 24 73 24 76 C24.66 76 25.32 76 26 76 C26.99 79.465 26.99 79.465 28 83 C27.01 83.495 27.01 83.495 26 84 C19.75845593 70.80359253 14.59305956 57.44269054 10.125 43.5625 C9.89670502 42.85836975 9.66841003 42.1542395 9.43319702 41.42877197 C0.59521201 14.04700342 0.59521201 14.04700342 0 0 Z " fill="#5685AF" transform="translate(161,570)"/>
<path d="M0 0 C0 0.66 0 1.32 0 2 C0.55328979 1.98747192 1.10657959 1.97494385 1.67663574 1.96203613 C7.51826395 1.83012164 13.35994483 1.70075095 19.20166016 1.57275391 C21.37192157 1.52488285 23.54216954 1.47639713 25.71240234 1.42724609 C38.14382518 1.14614793 50.5650182 0.91716148 63 1 C63 1.33 63 1.66 63 2 C36.05478905 4.81819174 8.92513691 5.25660403 -18 2 C-18 1.67 -18 1.34 -18 1 C-11.95170514 0.10395632 -6.1105424 -0.11269443 0 0 Z " fill="#6C94B7" transform="translate(491,859)"/>
<path d="M0 0 C2.73216378 1.36608189 2.82813335 2.7290386 3.875 5.5625 C5.17914219 8.97974477 6.56901225 12.25128255 8.25 15.5 C10 19 10 19 10 21 C10.66 21 11.32 21 12 21 C12 20.01 12 19.02 12 18 C12.66 18 13.32 18 14 18 C13.855625 18.928125 13.71125 19.85625 13.5625 20.8125 C13.5746042 26.77987088 17.46218566 31.48094281 21 36 C22.97363343 37.95501424 25.00282661 39.71396552 27.1640625 41.45703125 C29.79735973 43.67012147 31.80127576 46.36153091 34 49 C39.23045988 54.34500928 39.23045988 54.34500928 46 57 C45.67 57.99 45.34 58.98 45 60 C23.88622304 47.87000247 7.99041854 25.76143871 0 3 C0 2.01 0 1.02 0 0 Z " fill="#5B88B1" transform="translate(297,634)"/>
<path d="M0 0 C1 2 1 2 0.27734375 4.34765625 C-1.03447207 7.07157963 -2.5119964 9.11447307 -4.4375 11.4375 C-7.21371711 14.78934744 -9.11694622 18.0769713 -11 22 C-12.77912328 25.30068974 -14.57768795 28.59023026 -16.37890625 31.87890625 C-17.76684207 34.55110075 -18.94568334 37.18324356 -20 40 C-20.66 40 -21.32 40 -22 40 C-22.433125 41.546875 -22.433125 41.546875 -22.875 43.125 C-25.5996449 52.62288188 -25.5996449 52.62288188 -28 57 C-28.7425 58.36125 -28.7425 58.36125 -29.5 59.75 C-30.2425 60.86375 -30.2425 60.86375 -31 62 C-31.66 62 -32.32 62 -33 62 C-26.13191446 40.44699291 -13.77058781 17.98904252 0 0 Z " fill="#5787B2" transform="translate(214,303)"/>
<path d="M0 0 C3.72027744 1.24009248 4.24236881 2.45390451 6.35546875 5.69140625 C6.97744141 6.63564453 7.59941406 7.57988281 8.24023438 8.55273438 C8.88283203 9.54595703 9.52542969 10.53917969 10.1875 11.5625 C10.84169922 12.55958984 11.49589844 13.55667969 12.16992188 14.58398438 C13.78727397 17.05133172 15.3968893 19.5233853 17 22 C16.67 22.66 16.34 23.32 16 24 C15.01 24 14.02 24 13 24 C12.76539063 22.97777344 12.53078125 21.95554687 12.2890625 20.90234375 C11.11819369 16.80430292 9.01267109 13.91611039 6.375 10.5625 C5.95476563 10.02173828 5.53453125 9.48097656 5.1015625 8.92382812 C4.07719267 7.60844414 3.03992753 6.30311907 2 5 C-0.86724686 5.57344937 -1.8614515 5.8614515 -4 8 C-5.69947694 8.75169172 -7.40121117 9.49937346 -9.12109375 10.203125 C-10.88723093 10.95217278 -12.60311716 11.81668233 -14.3125 12.6875 C-17 14 -17 14 -19 14 C-19.33 14.66 -19.66 15.32 -20 16 C-20.66 15.34 -21.32 14.68 -22 14 C-21.0821875 13.49210938 -20.164375 12.98421875 -19.21875 12.4609375 C-12.98858971 8.97615647 -7.00599738 5.59048557 -1.55078125 0.93359375 C-0.78314453 0.47146484 -0.78314453 0.47146484 0 0 Z " fill="#5A8AB4" transform="translate(678,749)"/>
<path d="M0 0 C-11.25167686 4.82398004 -22.56812444 8.96265314 -34.3125 12.4375 C-35.46210205 12.77910156 -36.6117041 13.12070312 -37.79614258 13.47265625 C-43.19035238 15.03529773 -48.4080182 16.42708412 -54 17 C-50.56250611 13.93957815 -46.86907458 12.90264774 -42.5 11.8125 C-41.83613281 11.63525391 -41.17226563 11.45800781 -40.48828125 11.27539062 C-37.17933393 10.42008388 -34.44526634 10 -31 10 C-31 9.34 -31 8.68 -31 8 C-29.25183142 7.49363393 -27.50137737 6.99515381 -25.75 6.5 C-24.77546875 6.2215625 -23.8009375 5.943125 -22.796875 5.65625 C-20 5 -20 5 -16 5 C-16 4.34 -16 3.68 -16 3 C-14.35 3 -12.7 3 -11 3 C-10.67 2.01 -10.34 1.02 -10 0 C-3.375 -1.125 -3.375 -1.125 0 0 Z " fill="#5685B0" transform="translate(646,836)"/>
<path d="M0 0 C0.33 0 0.66 0 1 0 C1.05534912 0.68102783 1.11069824 1.36205566 1.16772461 2.0637207 C1.42047632 5.14697597 1.67892128 8.22972818 1.9375 11.3125 C2.02451172 12.38435547 2.11152344 13.45621094 2.20117188 14.56054688 C2.28818359 15.58857422 2.37519531 16.61660156 2.46484375 17.67578125 C2.543396 18.62364502 2.62194824 19.57150879 2.70288086 20.5480957 C2.93323104 23.13270257 2.93323104 23.13270257 4 26 C4.20115648 28.1428753 4.36346671 30.28953884 4.5 32.4375 C4.73375179 36.10656829 5.09515063 39.44790536 6 43 C6.12205329 45.67540816 6.04467313 48.31961238 6 51 C3.06482636 48.06482636 3.04537282 44.58118217 2.4375 40.625 C2.30819092 39.80572021 2.17888184 38.98644043 2.0456543 38.14233398 C0.08470794 25.38677317 -0.12124608 12.87902787 0 0 Z " fill="#5384B0" transform="translate(155,518)"/>
<path d="M0 0 C1.12136353 0.08302368 1.12136353 0.08302368 2.26538086 0.16772461 C19.50635707 1.43201901 36.72007838 2.43434987 54 3 C54 3.33 54 3.66 54 4 C48.7896356 4.02495201 43.57930695 4.04297787 38.36889648 4.05493164 C36.60098666 4.05992164 34.83308089 4.06671601 33.06518555 4.07543945 C7.36725934 4.19895225 7.36725934 4.19895225 0 1 C0 0.67 0 0.34 0 0 Z " fill="#5082B0" transform="translate(472,800)"/>
<path d="M0 0 C4.00799325 3.89645355 7.67640799 8.00691045 11.3125 12.25 C12.4684875 13.58876837 13.62473661 14.9273109 14.78125 16.265625 C16.63877176 18.41905429 18.49297331 20.57513552 20.34375 22.734375 C24.5663229 27.59368508 29.03847348 31.89618418 34 36 C33.34 36.66 32.68 37.32 32 38 C31.46375 37.2575 30.9275 36.515 30.375 35.75 C28.14205714 32.89427264 28.14205714 32.89427264 25.125 31.1875 C21.79709358 28.85796551 20.14436287 26.67737205 17.8359375 23.41015625 C15.55172848 20.4115244 13.01147421 17.68495255 10.4375 14.9375 C0 3.73294883 0 3.73294883 0 0 Z " fill="#5E8CB4" transform="translate(275,683)"/>
<path d="M0 0 C2.06935577 3.10403365 2.25517909 3.81900019 2.265625 7.34375 C2.26820313 8.17777344 2.27078125 9.01179688 2.2734375 9.87109375 C2.26570312 10.73863281 2.25796875 11.60617187 2.25 12.5 C2.25773438 13.36753906 2.26546875 14.23507812 2.2734375 15.12890625 C2.27085937 15.96292969 2.26828125 16.79695313 2.265625 17.65625 C2.26336914 18.41744141 2.26111328 19.17863281 2.25878906 19.96289062 C2 22 2 22 0 25 C-0.45915507 27.96842658 -0.45915507 27.96842658 -0.625 31.1875 C-0.69976562 32.27417969 -0.77453125 33.36085938 -0.8515625 34.48046875 C-0.90054688 35.31191406 -0.94953125 36.14335937 -1 37 C-1.33 37 -1.66 37 -2 37 C-2.2496045 24.49204127 -1.65944275 12.40137127 0 0 Z " fill="#4F84B3" transform="translate(157,450)"/>
<path d="M0 0 C3.90314105 1.57941056 6.24162137 4.10711974 9.125 7.125 C13.32545464 11.4366597 17.66439902 15.31509699 22.4296875 19.0078125 C25.37132847 21.28780778 28.24849056 23.63846667 31.125 26 C32.05570312 26.763125 32.98640625 27.52625 33.9453125 28.3125 C34.62335938 28.869375 35.30140625 29.42625 36 30 C35.67 30.66 35.34 31.32 35 32 C17.7186488 17.91789581 17.7186488 17.91789581 10.16015625 10.96875 C7.30734133 8.36871615 4.35960976 5.88560263 1.3984375 3.41015625 C0 2 0 2 0 0 Z " fill="#5B88B0" transform="translate(264,759)"/>
<path d="M0 0 C1.485 0.495 1.485 0.495 3 1 C-26.49987676 20 -26.49987676 20 -31 20 C-31 19.34 -31 18.68 -31 18 C-29.02 17.34 -27.04 16.68 -25 16 C-25 15.34 -25 14.68 -25 14 C-22.36 13.34 -19.72 12.68 -17 12 C-17.33 11.01 -17.66 10.02 -18 9 C-16.948125 8.814375 -16.948125 8.814375 -15.875 8.625 C-12.82343613 7.96161655 -9.94659062 7.02788045 -7 6 C-7 5.34 -7 4.68 -7 4 C-5.35 3.67 -3.7 3.34 -2 3 C-2 2.34 -2 1.68 -2 1 C-1.34 0.67 -0.68 0.34 0 0 Z " fill="#5A88B2" transform="translate(703,803)"/>
<path d="M0 0 C0.33 0 0.66 0 1 0 C0.88490339 1.41750563 0.75746342 2.83401169 0.625 4.25 C0.55539063 5.03890625 0.48578125 5.8278125 0.4140625 6.640625 C-0.01854182 9.1056534 -0.87414836 10.78347959 -2 13 C-2.44500285 15.12593058 -2.44500285 15.12593058 -2.625 17.25 C-2.74875 18.4875 -2.8725 19.725 -3 21 C-3.66 21 -4.32 21 -5 21 C-4.67 22.32 -4.34 23.64 -4 25 C-4.66 25.33 -5.32 25.66 -6 26 C-5.67 27.98 -5.34 29.96 -5 32 C-5.99 31.67 -6.98 31.34 -8 31 C-8.33 31.66 -8.66 32.32 -9 33 C-8.65823552 25.07238271 -6.66822373 18.28898568 -3.9375 10.875 C-3.56044922 9.823125 -3.18339844 8.77125 -2.79492188 7.6875 C-1.87337049 5.12115436 -0.941638 2.55902845 0 0 Z " fill="#5C8AB7" transform="translate(178,370)"/>
<path d="M0 0 C0.66 0.33 1.32 0.66 2 1 C1.67 1.66 1.34 2.32 1 3 C0.01 3.309375 -0.98 3.61875 -2 3.9375 C-2.99 4.288125 -3.98 4.63875 -5 5 C-5.33 5.99 -5.66 6.98 -6 8 C-6.99 8.66 -7.98 9.32 -9 10 C-9.33 10.99 -9.66 11.98 -10 13 C-11.98 13 -13.96 13 -16 13 C-16.33 13.99 -16.66 14.98 -17 16 C-19.0625 17.1875 -19.0625 17.1875 -21 18 C-21.66 17.34 -22.32 16.68 -23 16 C-15.4149827 10.54051387 -7.83485963 5.0988769 0 0 Z " fill="#5688B4" transform="translate(321,199)"/>
<path d="M0 0 C3.82883937 1.27627979 4.01796073 2.41268871 5.8125 5.9375 C8.32362841 10.75836307 11.02141972 15.39330084 13.8984375 20.00390625 C15 22 15 22 15 24 C15.66 24 16.32 24 17 24 C18.6875 26.25 18.6875 26.25 20 29 C19.58203125 31.171875 19.58203125 31.171875 19 33 C0 2.21957965 0 2.21957965 0 0 Z " fill="#5B8AB1" transform="translate(194,667)"/>
<path d="M0 0 C0.33 0.99 0.66 1.98 1 3 C-0.41872497 5.53987838 -1.88478718 7.90248185 -3.5 10.3125 C-8.26233917 17.64021085 -12.27111358 25.09772414 -16 33 C-17.31538327 28.84228506 -16.34433068 26.1120703 -15 22 C-14.01 22 -13.02 22 -12 22 C-11.7525 20.7625 -11.505 19.525 -11.25 18.25 C-10.31034799 14.41027092 -8.95384339 12.66798758 -6 10 C-5.2127322 7.8618034 -5.2127322 7.8618034 -5 6 C-4.34 6 -3.68 6 -3 6 C-2.690625 5.195625 -2.38125 4.39125 -2.0625 3.5625 C-1 1 -1 1 0 0 Z " fill="#5786AF" transform="translate(262,336)"/>
<path d="M0 0 C4.27662846 3.73437653 6.93207175 8.40246175 9.875 13.1875 C10.89206304 14.82754666 11.91029004 16.46687207 12.9296875 18.10546875 C13.42952148 18.90903809 13.92935547 19.71260742 14.44433594 20.54052734 C16.89091168 24.40851291 19.43776148 28.20795541 22 32 C21.34 32.66 20.68 33.32 20 34 C19.46890625 33.11957031 18.9378125 32.23914063 18.390625 31.33203125 C17.67726585 30.15874318 16.9637139 28.98557231 16.25 27.8125 C15.90195312 27.23435547 15.55390625 26.65621094 15.1953125 26.06054688 C13.01484661 22.48700556 10.61353949 19.26143373 8 16 C6.875 13.97265625 6.875 13.97265625 6 12.0625 C4.74507225 9.42814769 3.41446389 7.02206244 1.75 4.625 C0 2 0 2 0 0 Z " fill="#5D8AB2" transform="translate(618,655)"/>
<path d="M0 0 C2.57465122 2.57465122 3.79313588 4.1829771 5.41015625 7.30859375 C6.05887695 8.55286133 6.05887695 8.55286133 6.72070312 9.82226562 C7.16349609 10.68529297 7.60628906 11.54832031 8.0625 12.4375 C8.50916016 13.29666016 8.95582031 14.15582031 9.41601562 15.04101562 C11.30495523 18.680542 13.1722206 22.32935279 15 26 C14.01 26.33 13.02 26.66 12 27 C11.608125 26.030625 11.21625 25.06125 10.8125 24.0625 C9.17407181 20.19486421 7.12772473 16.62554144 4.98828125 13.015625 C4 11 4 11 4 8 C3.01 8.33 2.02 8.66 1 9 C0.67 6.03 0.34 3.06 0 0 Z " fill="#5E8CB4" transform="translate(241,628)"/>
<path d="M0 0 C0.33 0.66 0.66 1.32 1 2 C-0.6396875 2.8971875 -0.6396875 2.8971875 -2.3125 3.8125 C-4.44369643 5.01746217 -6.0095013 6.0095013 -7.75 7.75 C-8.1625 8.1625 -8.575 8.575 -9 9 C-9.99 9 -10.98 9 -12 9 C-13.90516024 9.46319381 -15.80061309 9.96723193 -17.6875 10.5 C-18.68136719 10.7784375 -19.67523437 11.056875 -20.69921875 11.34375 C-21.45847656 11.5603125 -22.21773437 11.776875 -23 12 C-23 11.34 -23 10.68 -23 10 C-15.41 6.7 -7.82 3.4 0 0 Z " fill="#5888B4" transform="translate(640,772)"/>
<path d="M0 0 C0.33 0 0.66 0 1 0 C0.88501733 2.20887757 0.75756495 4.41710787 0.625 6.625 C0.55539063 7.85476563 0.48578125 9.08453125 0.4140625 10.3515625 C0.01683231 13.85168514 -0.82039374 16.69803131 -2 20 C-2.165 21.258125 -2.33 22.51625 -2.5 23.8125 C-2.665 24.864375 -2.83 25.91625 -3 27 C-3.66 27.33 -4.32 27.66 -5 28 C-5.349746 21.69582833 -4.04072396 16.15460583 -2.5 10.0625 C-2.26152344 9.09248047 -2.02304688 8.12246094 -1.77734375 7.12304688 C-1.19206612 4.74681968 -0.59946749 2.37267958 0 0 Z " fill="#5B8BB6" transform="translate(166,407)"/>
<path d="M0 0 C3.4817325 4.15850954 6.41769972 8.55163208 9.3125 13.125 C10.01342773 14.19814453 10.01342773 14.19814453 10.72851562 15.29296875 C11.38303711 16.32744141 11.38303711 16.32744141 12.05078125 17.3828125 C12.44950439 18.00559082 12.84822754 18.62836914 13.2590332 19.27001953 C14 21 14 21 13 24 C10.4375 25.1875 10.4375 25.1875 8 26 C8 25.34 8 24.68 8 24 C9.32 23.67 10.64 23.34 12 23 C11.34 21.02 10.68 19.04 10 17 C9.01 17 8.02 17 7 17 C7 15.35 7 13.7 7 12 C6.34 12 5.68 12 5 12 C0.57142857 4.71428571 0.57142857 4.71428571 0 0 Z " fill="#5B88B0" transform="translate(698,777)"/>
<path d="M0 0 C1.70363822 0.22622081 3.41328701 0.40888473 5.125 0.5625 C6.03507812 0.64628906 6.94515625 0.73007812 7.8828125 0.81640625 C8.58148438 0.87699219 9.28015625 0.93757812 10 1 C10 1.33 10 1.66 10 2 C1.75 2 -6.5 2 -15 2 C-14 0 -14 0 -11.3125 -1.1875 C-7.10907449 -2.2185289 -3.88331313 -1.94165657 0 0 Z " fill="#4583BE" transform="translate(477,802)"/>
<path d="M0 0 C0.33 0 0.66 0 1 0 C1.33 5.61 1.66 11.22 2 17 C0.02 17.99 0.02 17.99 -2 19 C-3.27766314 11.79862595 -2.52686664 6.83824362 0 0 Z " fill="#8B9797" transform="translate(868,466)"/>
<path d="M0 0 C0.33 0.66 0.66 1.32 1 2 C2.60875 1.87625 2.60875 1.87625 4.25 1.75 C8 2 8 2 10.4375 4 C11.2109375 4.99 11.2109375 4.99 12 6 C7.83326479 7.79341438 4.25336659 6.01173384 0.25 4.5625 C-0.44738281 4.31951172 -1.14476562 4.07652344 -1.86328125 3.82617188 C-3.57885098 3.22689752 -5.28989715 2.61470115 -7 2 C-7 1.67 -7 1.34 -7 1 C-2.25 0 -2.25 0 0 0 Z " fill="#5D8DB8" transform="translate(405,842)"/>
<path d="M0 0 C5.36676476 0.45481057 8.42452746 1.09848083 13 4 C15.96609949 5.11103049 18.97274627 6.07005931 22 7 C20.27050781 8.09716797 20.27050781 8.09716797 18 9 C15.89355469 8.49267578 15.89355469 8.49267578 13.671875 7.4453125 C12.87265625 7.07792969 12.0734375 6.71054687 11.25 6.33203125 C10.425 5.93371094 9.6 5.53539062 8.75 5.125 C7.90953125 4.73441406 7.0690625 4.34382812 6.203125 3.94140625 C4.12841653 2.97478071 2.06165771 1.99408142 0 1 C0 0.67 0 0.34 0 0 Z " fill="#618EB5" transform="translate(361,828)"/>
<path d="M0 0 C0.66 0.33 1.32 0.66 2 1 C-0.7269181 2.46256659 -3.4569188 3.91928541 -6.1875 5.375 C-6.95642578 5.7875 -7.72535156 6.2 -8.51757812 6.625 C-16.78282724 11.02367335 -16.78282724 11.02367335 -20 12 C-20.99 11.67 -21.98 11.34 -23 11 C-22.43152344 10.75765625 -21.86304688 10.5153125 -21.27734375 10.265625 C-17.54007524 8.64343834 -13.88687966 7.009429 -10.375 4.9375 C-6.94059122 2.96589496 -3.70674279 1.38094339 0 0 Z " fill="#5B87AF" transform="translate(669,823)"/>
<path d="M0 0 C0.33 0 0.66 0 1 0 C2.14078014 6.84468083 3.2225911 13.55481781 0 20 C-0.33 20 -0.66 20 -1 20 C-1.02696009 17.2291017 -1.04681952 14.4584655 -1.0625 11.6875 C-1.07087891 10.90181641 -1.07925781 10.11613281 -1.08789062 9.30664062 C-1.09111328 8.54931641 -1.09433594 7.79199219 -1.09765625 7.01171875 C-1.10289307 6.31522217 -1.10812988 5.61872559 -1.11352539 4.90112305 C-1 3 -1 3 0 0 Z " fill="#748281" transform="translate(866,456)"/>
<path d="M0 0 C0.33 0 0.66 0 1 0 C1.86738365 3.43430411 2.71660951 6.87284451 3.5625 10.3125 C3.80935547 11.28896484 4.05621094 12.26542969 4.31054688 13.27148438 C4.53935547 14.20927734 4.76816406 15.14707031 5.00390625 16.11328125 C5.21861572 16.97735596 5.4333252 17.84143066 5.65454102 18.73168945 C6 21 6 21 5 24 C0.90661365 16.20476861 -0.50313121 8.75820998 0 0 Z " fill="#5887B2" transform="translate(219,560)"/>
<path d="M0 0 C0 0.66 0 1.32 0 2 C-5.88018669 3.96006223 -11.99690429 3.00051595 -18 2 C-18 1.67 -18 1.34 -18 1 C-11.95170514 0.10395632 -6.1105424 -0.11269443 0 0 Z " fill="#6392BD" transform="translate(491,859)"/>
<path d="M0 0 C1.13087014 3.39261042 0.86514295 4.16517757 -0.21484375 7.44921875 C-0.62573242 8.72055664 -0.62573242 8.72055664 -1.04492188 10.01757812 C-1.48674805 11.33918945 -1.48674805 11.33918945 -1.9375 12.6875 C-2.22818359 13.58017578 -2.51886719 14.47285156 -2.81835938 15.39257812 C-3.53769987 17.59776948 -4.26516672 19.79993258 -5 22 C-6.289637 17.78857437 -5.36341123 14.57112693 -4.1875 10.4375 C-3.91969727 9.42913086 -3.91969727 9.42913086 -3.64648438 8.40039062 C-2.758597 5.17258347 -1.87322309 2.80983464 0 0 Z " fill="#5585AE" transform="translate(230,401)"/>
<path d="M0 0 C-0.0825 0.72574219 -0.165 1.45148437 -0.25 2.19921875 C0.08049762 5.9018249 1.46132701 7.15482672 4 9.8125 C4.7425 10.60269531 5.485 11.39289062 6.25 12.20703125 C6.8275 12.79871094 7.405 13.39039063 8 14 C7.67 14.66 7.34 15.32 7 16 C5.55726615 14.44233138 4.12103292 12.87864043 2.6875 11.3125 C1.88699219 10.44238281 1.08648437 9.57226562 0.26171875 8.67578125 C-1.81548337 6.21829688 -3.43831576 3.80496684 -5 1 C-2 0 -2 0 0 0 Z " fill="#5587B1" transform="translate(235,721)"/>
<path d="M0 0 C2.66604583 1.33302292 2.99124788 2.18990481 4 5 C4.4730668 9.60767067 4.30157695 12.90830765 2 17 C-0.29612756 5.47835991 -0.29612756 5.47835991 0 0 Z " fill="#5589B6" transform="translate(161,570)"/>
<path d="M0 0 C3 2 3 2 3.6875 5.125 C4.00984779 9.12211256 4.0703016 12.99280854 4 17 C3.731875 16.443125 3.46375 15.88625 3.1875 15.3125 C2.04583073 12.92962603 2.04583073 12.92962603 0.3125 10.75 C-1.57207092 6.80137522 -0.79377213 4.25750507 0 0 Z " fill="#588CBA" transform="translate(213,532)"/>
<path d="M0 0 C1.0209375 0.433125 1.0209375 0.433125 2.0625 0.875 C5.32893093 2.12597355 8.62846123 3.07447955 12 4 C12 4.99 12 5.98 12 7 C13.65 7.33 15.3 7.66 17 8 C17 8.66 17 9.32 17 10 C11.10873008 8.44966581 5.97939999 5.45088361 1 2 C0.67 1.34 0.34 0.68 0 0 Z " fill="#5D89B5" transform="translate(345,695)"/>
<path d="M0 0 C0.99 0.66 1.98 1.32 3 2 C2.34 2 1.68 2 1 2 C0.7525 2.639375 0.505 3.27875 0.25 3.9375 C-1 6 -1 6 -3.125 6.75 C-4.053125 6.87375 -4.053125 6.87375 -5 7 C-5 7.99 -5 8.98 -5 10 C-6.32 9.67 -7.64 9.34 -9 9 C-6.03 6.03 -3.06 3.06 0 0 Z " fill="#618FB9" transform="translate(261,246)"/>
<path d="M0 0 C1.37562854 1.28965176 2.70766393 2.62689293 4 4 C4 4.66 4 5.32 4 6 C4.66 6 5.32 6 6 6 C6 6.66 6 7.32 6 8 C6.66 8 7.32 8 8 8 C10 10 10 10 10.125 12.625 C10.08375 13.40875 10.0425 14.1925 10 15 C6.17613653 11.47027988 2.73252491 7.43579877 0 3 C0 2.01 0 1.02 0 0 Z " fill="#5787B1" transform="translate(217,703)"/>
<path d="M0 0 C1.17571451 3.67410785 1.07366746 7.16929183 1 11 C-0.32 10.67 -1.64 10.34 -3 10 C-2.25 2.25 -2.25 2.25 0 0 Z " fill="#4584BF" transform="translate(159,514)"/>
<path d="M0 0 C0.66 0 1.32 0 2 0 C1.95875 1.0725 1.9175 2.145 1.875 3.25 C1.9885825 6.65747485 2.21273364 8.20739631 4 11 C3.01 11.495 3.01 11.495 2 12 C1.13341385 10.73760288 0.28207941 9.46472499 -0.5625 8.1875 C-1.27599609 7.12595703 -1.27599609 7.12595703 -2.00390625 6.04296875 C-3 4 -3 4 -2 1 C-2 1.66 -2 2.32 -2 3 C-1.34 3 -0.68 3 0 3 C0 2.01 0 1.02 0 0 Z " fill="#4C83B4" transform="translate(309,652)"/>
<path d="M0 0 C0 0.66 0 1.32 0 2 C-2.01254178 3.4015916 -4.11942295 4.56800474 -6.25 5.78125 C-6.8275 6.1834375 -7.405 6.585625 -8 7 C-8 7.66 -8 8.32 -8 9 C-9.32 8.67 -10.64 8.34 -12 8 C-10.77974937 4.3392481 -9.873509 4.07660559 -6.5625 2.3125 C-5.75941406 1.87550781 -4.95632813 1.43851563 -4.12890625 0.98828125 C-2 0 -2 0 0 0 Z " fill="#5A8CB7" transform="translate(342,188)"/>
<path d="M0 0 C1.125 1.75 1.125 1.75 2 4 C1.3125 5.9375 1.3125 5.9375 0 8 C-0.495 8.9075 -0.99 9.815 -1.5 10.75 C-2.2425 11.86375 -2.2425 11.86375 -3 13 C-3.66 13 -4.32 13 -5 13 C-3.58192622 8.52761347 -1.88695626 4.28853694 0 0 Z " fill="#5C8DBA" transform="translate(186,352)"/>
<path d="M0 0 C4.87305969 4.29975855 7.8200442 9.37224317 11 15 C10.01 15.495 10.01 15.495 9 16 C7.49445366 13.71180854 5.99542957 11.41978831 4.5 9.125 C4.07074219 8.47402344 3.64148438 7.82304688 3.19921875 7.15234375 C0 2.2265625 0 2.2265625 0 0 Z " fill="#618CB2" transform="translate(641,691)"/>
<path d="M0 0 C0.33 0 0.66 0 1 0 C0.58411954 6.19518473 -0.60251894 11.26689311 -3 17 C-3.66 16.67 -4.32 16.34 -5 16 C-3.41078475 10.63904723 -1.81027062 5.29156027 0 0 Z " fill="#6692BA" transform="translate(178,370)"/>
<path d="M0 0 C4.06498881 1.37184347 6.67396561 3.22068459 9.8125 6.125 C10.99779297 7.21167969 10.99779297 7.21167969 12.20703125 8.3203125 C12.79871094 8.87460937 13.39039063 9.42890625 14 10 C13.67 10.66 13.34 11.32 13 12 C10.83035229 10.19096681 8.66421535 8.37801121 6.5 6.5625 C5.87996094 6.04623047 5.25992187 5.52996094 4.62109375 4.99804688 C3.06197284 3.68735732 1.52871719 2.34602708 0 1 C0 0.67 0 0.34 0 0 Z " fill="#5886AD" transform="translate(286,779)"/>
<path d="M0 0 C0 0.99 0 1.98 0 3 C-2.5 5.1875 -2.5 5.1875 -5 7 C-6.32 6.34 -7.64 5.68 -9 5 C-6.03 3.35 -3.06 1.7 0 0 Z " fill="#5F8FBA" transform="translate(653,765)"/>
<path d="M0 0 C1.98 0.99 1.98 0.99 4 2 C4 2.66 4 3.32 4 4 C4.99 4 5.98 4 7 4 C7.12375 4.639375 7.2475 5.27875 7.375 5.9375 C7.684375 6.9584375 7.684375 6.9584375 8 8 C8.66 8.33 9.32 8.66 10 9 C7 9 7 9 5.17578125 7.28515625 C4.56089844 6.55167969 3.94601562 5.81820312 3.3125 5.0625 C2.68988281 4.33160156 2.06726563 3.60070312 1.42578125 2.84765625 C0 1 0 1 0 0 Z " fill="#638FB6" transform="translate(254,749)"/>
<path d="M0 0 C0.70125 0.721875 1.4025 1.44375 2.125 2.1875 C4.92770745 4.99823813 7.92262792 7.49516226 11 10 C10.34 10.66 9.68 11.32 9 12 C9 11.34 9 10.68 9 10 C8.443125 9.79375 7.88625 9.5875 7.3125 9.375 C4.02987629 7.42316968 2.29326754 5.05769006 0 2 C0 1.34 0 0.68 0 0 Z " fill="#618DB6" transform="translate(361,631)"/>
<path d="M0 0 C0.66 0.33 1.32 0.66 2 1 C0.02 4.96 -1.96 8.92 -4 13 C-5.13757948 8.44968209 -4.4283779 6.36915594 -3 2 C-2.01 2 -1.02 2 0 2 C0 1.34 0 0.68 0 0 Z " fill="#5F8EB5" transform="translate(250,356)"/>
<path d="M0 0 C0.33 0.99 0.66 1.98 1 3 C0.34 3.66 -0.32 4.32 -1 5 C-1.99 5 -2.98 5 -4 5 C-4.66 6.32 -5.32 7.64 -6 9 C-6.99 8.34 -7.98 7.68 -9 7 C-6.03 4.69 -3.06 2.38 0 0 Z " fill="#588AB3" transform="translate(295,217)"/>
<path d="M0 0 C3.96 0.33 7.92 0.66 12 1 C12 1.99 12 2.98 12 4 C3.42857143 3.14285714 3.42857143 3.14285714 0 1 C0 0.67 0 0.34 0 0 Z " fill="#5384B1" transform="translate(364,705)"/>
<path d="M0 0 C1.65 0 3.3 0 5 0 C2.45217026 2.97246802 -0.45340883 4.41535288 -4 6 C-4.66 6 -5.32 6 -6 6 C-6 5.34 -6 4.68 -6 4 C-4.02 3.34 -2.04 2.68 0 2 C0 1.34 0 0.68 0 0 Z " fill="#4F81AE" transform="translate(678,817)"/>
<path d="M0 0 C1.4589426 0.47730838 2.91713496 0.95691042 4.375 1.4375 C5.18710937 1.70433594 5.99921875 1.97117187 6.8359375 2.24609375 C9 3 9 3 11 4 C10.67 4.66 10.34 5.32 10 6 C9.01 6 8.02 6 7 6 C7 5.34 7 4.68 7 4 C5.68 4 4.36 4 3 4 C3 3.34 3 2.68 3 2 C2.01 1.67 1.02 1.34 0 1 C0 0.67 0 0.34 0 0 Z " fill="#5284B2" transform="translate(388,775)"/>
<path d="M0 0 C-1.32 0.33 -2.64 0.66 -4 1 C-4 1.66 -4 2.32 -4 3 C-6.31 3 -8.62 3 -11 3 C-11.33 2.34 -11.66 1.68 -12 1 C-7.93631321 0.22596442 -4.13574827 -0.0984702 0 0 Z " fill="#4F83B3" transform="translate(439,850)"/>
<path d="M0 0 C3 1 3 1 4.1875 3.0625 C4.455625 3.701875 4.72375 4.34125 5 5 C3.33333333 5 1.66666667 5 0 5 C0 4.34 0 3.68 0 3 C-0.66 2.67 -1.32 2.34 -2 2 C-1.34 1.34 -0.68 0.68 0 0 Z " fill="#6490B7" transform="translate(678,749)"/>
<path d="M0 0 C3.08669204 3.08669204 3.44855089 3.91927658 4 8 C3.01 8.33 2.02 8.66 1 9 C0.67 6.03 0.34 3.06 0 0 Z " fill="#4E82B0" transform="translate(241,628)"/>
<path d="M0 0 C2.45823172 3.68734758 3.01242616 6.69699971 4 11 C1.4375 8.875 1.4375 8.875 -1 6 C-0.8125 2.6875 -0.8125 2.6875 0 0 Z " fill="#6391B8" transform="translate(230,599)"/>
<path d="M0 0 C2.50357861 0.8345262 4.66785852 1.79371992 7 3 C1.58461538 4.23076923 1.58461538 4.23076923 -1.375 3.0625 C-1.91125 2.711875 -2.4475 2.36125 -3 2 C-2.01 2 -1.02 2 0 2 C0 1.34 0 0.68 0 0 Z " fill="#6795C1" transform="translate(435,851)"/>
<path d="M0 0 C3.79303725 1.00193437 6.71536341 1.81024227 10 4 C10 4.66 10 5.32 10 6 C6.40992874 4.66654496 3.20429093 3.1056769 0 1 C0 0.67 0 0.34 0 0 Z " fill="#618DB2" transform="translate(332,812)"/>
<path d="M0 0 C0.66 0.33 1.32 0.66 2 1 C1.01 2.485 1.01 2.485 0 4 C-2.5 4.125 -2.5 4.125 -5 4 C-5.99 4.495 -5.99 4.495 -7 5 C-6.67 4.01 -6.34 3.02 -6 2 C-4.0625 1.375 -4.0625 1.375 -2 1 C-1.34 0.67 -0.68 0.34 0 0 Z " fill="#4A83BA" transform="translate(661,762)"/>
<path d="M0 0 C3.63 1.98 7.26 3.96 11 6 C8 7 8 7 5.95703125 6.07421875 C4.89548828 5.38779297 4.89548828 5.38779297 3.8125 4.6875 C3.09707031 4.23761719 2.38164062 3.78773438 1.64453125 3.32421875 C1.10183594 2.88722656 0.55914062 2.45023438 0 2 C0 1.34 0 0.68 0 0 Z " fill="#5E8BB1" transform="translate(350,753)"/>
<path d="M0 0 C2.45484649 2.13464912 3.68134222 3.70720291 4 7 C3.34 7.66 2.68 8.32 2 9 C2 8.01 2 7.02 2 6 C1.34 6 0.68 6 0 6 C0 4.02 0 2.04 0 0 Z " fill="#5A8AB6" transform="translate(237,619)"/>
<path d="M0 0 C0.66 0.66 1.32 1.32 2 2 C1.34 2 0.68 2 0 2 C0 1.34 0 0.68 0 0 Z M-2 2 C-1.34 2.33 -0.68 2.66 0 3 C0.625 6.0625 0.625 6.0625 1 9 C0.01 8.67 -0.98 8.34 -2 8 C-2.33 8.66 -2.66 9.32 -3 10 C-2.67 7.36 -2.34 4.72 -2 2 Z " fill="#4D82B6" transform="translate(172,393)"/>
<path d="M0 0 C0 3.90838866 -1.50567876 5.11594107 -4 8 C-4.66 7.67 -5.32 7.34 -6 7 C-4.60667426 3.63279613 -3.0210714 2.0140476 0 0 Z " fill="#5689B4" transform="translate(285,225)"/>
<path d="M0 0 C-0.33 0.99 -0.66 1.98 -1 3 C-3.875 3.125 -3.875 3.125 -7 3 C-7.66 2.34 -8.32 1.68 -9 1 C-5.8035914 -0.06546953 -3.34252724 -0.07427838 0 0 Z " fill="#568BBD" transform="translate(594,851)"/>
<path d="M0 0 C3.36720387 1.39332574 4.9859524 2.9789286 7 6 C4 6 4 6 1.8125 4.125 C0 2 0 2 0 0 Z " fill="#6692B9" transform="translate(264,759)"/>
<path d="M0 0 C0.99 0.33 1.98 0.66 3 1 C0.36 2.98 -2.28 4.96 -5 7 C-4.67 5.68 -4.34 4.36 -4 3 C-2.68 2.67 -1.36 2.34 0 2 C0 1.34 0 0.68 0 0 Z " fill="#DDF1F8" transform="translate(287,221)"/>
<path d="M0 0 C0.99 0 1.98 0 3 0 C3.185625 0.9590625 3.185625 0.9590625 3.375 1.9375 C3.684375 2.9584375 3.684375 2.9584375 4 4 C4.66 4.33 5.32 4.66 6 5 C5.01 5.66 4.02 6.32 3 7 C2.01 4.69 1.02 2.38 0 0 Z " fill="#5C8CB7" transform="translate(190,659)"/>
<path d="M0 0 C0.99 0.33 1.98 0.66 3 1 C2.67 1.99 2.34 2.98 2 4 C0.35 4 -1.3 4 -3 4 C-3 3.34 -3 2.68 -3 2 C-2.01 1.34 -1.02 0.68 0 0 Z " fill="#4281BB" transform="translate(616,656)"/>
<path d="M0 0 C0.99 0.33 1.98 0.66 3 1 C1.35 2.65 -0.3 4.3 -2 6 C-2.33 5.01 -2.66 4.02 -3 3 C-2.01 2.01 -1.02 1.02 0 0 Z " fill="#5A8DBA" transform="translate(274,234)"/>
</svg>
